HIERARCHY
ROOT hip
{
	OFFSET 0.000000 0.000000 0.000000 
	CHANNELS 6 Xposition Yposition Zposition Xrotation Zrotation Yrotation
	JOINT abdomen
	{
		OFFSET 0.000000 3.402643 0.000000 
		CHANNELS 3 Xrotation Zrotation Yrotation
		JOINT chest
		{
			OFFSET 0.000000 8.438565 -0.680529 
			CHANNELS 3 Xrotation Zrotation Yrotation
			JOINT neck
			{
				OFFSET 0.000000 10.207942 -0.272212 
				CHANNELS 3 Xrotation Zrotation Yrotation
				JOINT head
				{
					OFFSET 0.000000 3.130431 0.000000 
					CHANNELS 3 Xrotation Zrotation Yrotation
					End Site
					{
						OFFSET 0.000000 3.130435 0.000000 
					}
				}
			}
			JOINT lCollar
			{
				OFFSET 3.470700 6.669187 -0.816635 
				CHANNELS 3 Yrotation Zrotation Xrotation
				JOINT lShldr
				{
					OFFSET 3.198488 0.000000 0.000000 
					CHANNELS 3 Zrotation Yrotation Xrotation
					JOINT lForeArm
					{
						OFFSET 10.139888 0.000000 0.000000 
						CHANNELS 3 Yrotation Zrotation Xrotation
						JOINT lHand
						{
							OFFSET 8.370511 0.000000 0.000000 
							CHANNELS 3 Zrotation Yrotation Xrotation
							End Site
							{
								OFFSET 4.083176 0.000000 0.000000 
							}
						}
					}
				}
			}
			JOINT rCollar
			{
				OFFSET -3.470700 6.669187 -0.816635 
				CHANNELS 3 Yrotation Zrotation Xrotation
				JOINT rShldr
				{
					OFFSET -3.198488 0.000000 0.000000 
					CHANNELS 3 Zrotation Yrotation Xrotation
					JOINT rForeArm
					{
						OFFSET -10.139888 0.000000 0.000000 
						CHANNELS 3 Yrotation Zrotation Xrotation
						JOINT rHand
						{
							OFFSET -8.370511 0.000000 0.000000 
							CHANNELS 3 Zrotation Yrotation Xrotation
							End Site
							{
								OFFSET -4.083176 0.000000 0.000000 
							}
						}
					}
				}
			}
		}
	}
	JOINT lThigh
	{
		OFFSET 5.308129 -1.633274 1.361059 
		CHANNELS 3 Xrotation Zrotation Yrotation
		JOINT lShin
		{
			OFFSET -2.041588 -20.007561 0.000000 
			CHANNELS 3 Xrotation Zrotation Yrotation
			JOINT lFoot
			{
				OFFSET 0.000000 -19.190928 -1.224953 
				CHANNELS 3 Xrotation Yrotation Zrotation
				End Site
				{
					OFFSET 0.000000 -2.449906 4.627600 
				}
			}
		}
	}
	JOINT rThigh
	{
		OFFSET -5.308129 -1.633274 1.361059 
		CHANNELS 3 Xrotation Zrotation Yrotation
		JOINT rShin
		{
			OFFSET 2.041588 -20.007561 0.000000 
			CHANNELS 3 Xrotation Zrotation Yrotation
			JOINT rFoot
			{
				OFFSET 0.000000 -19.190928 -1.224953 
				CHANNELS 3 Xrotation Yrotation Zrotation
				End Site
				{
					OFFSET 0.000000 -2.449906 4.627600 
				}
			}
		}
	}
}
MOTION
Frames: 15
Frame Time: 0.016667
-3.934596 48.271664 98.244675 6.140815 4.551199 43.943539 11.140601 -5.712570 0.608294 0.000000 0.000000 0.000000 -30.599773 7.640759 -11.410712 0.000000 0.000000 0.000000 0.000000 0.000000 0.000000 -18.310463 6.171178 11.391655 39.919479 137.576172 -89.721733 17.992704 15.267921 -72.754227 0.000000 0.000000 0.000000 21.481482 -10.089124 -5.073854 109.060516 -34.936466 58.971210 -15.110888 1.431971 -59.498268 -2.363384 -8.778710 0.856313 2.465253 0.302355 6.552103 18.424095 -0.318126 -0.163444 -1.659361 -4.565664 -10.872060 3.515279 0.048914 -4.017416 11.698844 2.503417 -1.695648 
-3.918909 47.854130 98.166885 5.437735 3.501654 44.832912 9.644440 -4.755665 0.519035 0.000000 0.000000 0.000000 -31.136387 7.558975 -11.241055 0.000000 0.000000 0.000000 0.000000 0.000000 0.000000 -23.808393 3.855830 6.274116 -134.305435 47.911259 86.291061 19.181595 21.173151 -74.492607 0.000000 0.000000 0.000000 23.668043 -8.871854 -12.362748 92.994186 -39.618954 53.086430 -4.817660 -2.494168 -51.465664 -1.589918 -7.902709 -0.844512 1.721389 0.467668 6.207637 13.857365 -0.002234 -0.180267 -0.702026 -3.057553 -10.841307 2.224505 -0.068478 -4.693596 8.988037 2.483254 -2.186218 
-4.008492 47.658161 98.144485 5.174474 2.529793 45.447372 8.589952 -4.404173 0.430669 0.000000 0.000000 0.000000 -32.811020 8.092641 -11.689132 0.000000 0.000000 0.000000 0.000000 0.000000 0.000000 -21.981117 6.164189 7.086331 -115.093430 49.136486 73.359871 16.373760 17.730988 -71.793556 0.000000 0.000000 0.000000 18.736893 -12.336207 -6.174726 79.082451 -33.435360 47.450638 10.462463 1.492001 -37.675293 -1.492317 -7.394102 -2.764967 1.470746 0.779682 6.850780 9.902059 -0.005316 -0.264424 0.136769 -1.666897 -10.721362 0.548541 -0.270043 -5.713138 6.734734 2.957865 -2.414176 
-4.097415 47.464931 98.121796 4.902614 1.572623 46.057808 7.555237 -4.062436 0.322839 0.000000 0.000000 0.000000 -34.470509 8.605014 -12.139524 0.000000 0.000000 0.000000 0.000000 0.000000 0.000000 -20.063437 8.443109 8.024031 -96.250534 47.470692 60.760010 13.421583 14.341628 -68.999260 0.000000 0.000000 0.000000 13.361707 -15.255451 0.481463 66.993164 -26.445669 44.049450 26.157246 1.733062 -23.460981 -1.425147 -6.892900 -4.672530 1.227273 1.101077 7.463163 5.956213 0.012328 -0.375012 0.984452 -0.290069 -10.571696 -1.059549 -0.526684 -6.723562 4.477102 3.418081 -2.580575 
-4.125407 47.526512 98.071411 4.896623 1.923395 46.499039 7.633699 -4.677717 0.156526 0.000000 0.000000 0.000000 -34.905083 9.134262 -12.316360 0.000000 0.000000 0.000000 0.000000 0.000000 0.000000 -12.404479 10.884955 14.841180 -96.542313 42.959236 62.149010 7.904975 3.247761 -68.375870 0.000000 0.000000 0.000000 5.741123 -18.883896 16.510605 73.825562 -25.424953 49.089417 32.620514 9.839831 -23.000568 -1.425000 -7.040931 -5.118544 1.741459 0.866721 6.998450 3.748253 0.208784 -0.217393 1.370498 -0.209535 -10.531066 -1.274288 -0.867326 -7.513871 3.352147 3.564057 -2.795817 
-4.152219 47.588745 98.020607 4.900249 2.281987 46.933441 7.725513 -5.283204 -0.010623 0.000000 0.000000 0.000000 -35.329895 9.663485 -12.473438 0.000000 0.000000 0.000000 0.000000 0.000000 0.000000 -4.479515 12.342107 21.955732 -96.781853 38.515587 63.491177 2.263843 -7.732111 -66.749466 0.000000 0.000000 0.000000 -2.688946 -20.291443 33.049217 80.539650 -23.932508 53.890625 39.283264 17.853359 -21.671045 -1.425155 -7.178953 -5.563935 2.253598 0.644189 6.502459 1.539780 0.405454 -0.049870 1.751157 -0.142527 -10.520802 -1.440822 -1.208024 -8.282192 2.219679 3.728928 -2.992400 
-4.068245 47.711910 97.931023 4.466234 2.982711 47.546043 8.346574 -5.292438 -0.814297 0.000000 0.000000 0.000000 -33.929260 10.120930 -10.893594 0.000000 0.000000 0.000000 0.000000 0.000000 0.000000 0.096446 9.518358 26.356010 -107.075790 39.760796 70.302094 0.574315 -18.865284 -71.439178 0.000000 0.000000 0.000000 -4.423212 -18.914202 38.853905 94.631279 -26.837366 56.630470 36.878017 27.327234 -30.321764 -1.425076 -7.480545 -5.217098 3.967920 0.634071 4.598258 0.287051 1.068319 0.099463 1.120637 -0.865631 -10.500170 1.245667 -1.170280 -8.674654 1.632255 3.301208 -2.739556 
-3.980322 47.833477 97.839333 4.021754 3.681050 48.149487 8.967064 -5.271346 -1.618867 0.000000 0.000000 0.000000 -32.479004 10.547824 -9.247906 0.000000 0.000000 0.000000 0.000000 0.000000 0.000000 4.300215 6.383489 30.381456 -117.591652 40.048397 77.347794 -0.199786 -29.941771 -76.245522 0.000000 0.000000 0.000000 -5.911055 -17.376825 44.353481 109.118874 -29.006939 60.104908 32.408997 36.260193 -40.451824 -1.425227 -7.742516 -4.878233 5.681008 0.644242 2.705050 -0.982320 1.720616 0.302698 0.439014 -1.598819 -10.484732 4.028862 -1.114652 -9.052103 1.075170 2.867783 -2.492691 
-3.521264 47.805485 97.548233 2.612731 3.947309 48.434601 9.248208 -3.248194 -2.758885 0.000000 0.000000 0.000000 -27.452356 11.805175 -2.533859 0.000000 0.000000 0.000000 0.000000 0.000000 0.000000 -0.709554 4.389815 25.117443 -127.669182 41.720009 82.420532 2.353415 -26.664558 -87.011765 0.000000 0.000000 0.000000 0.734563 -15.347782 28.103508 116.614334 -27.723532 59.445335 19.295286 37.341373 -60.005867 -1.414820 -6.895366 -3.776201 7.898679 0.341583 0.517035 -1.953423 2.716937 0.894837 -4.579066 -2.909373 -8.322536 13.902102 0.350708 -9.724792 4.328230 1.646028 -2.020407 
-3.067394 47.776726 97.261253 1.201886 4.219291 48.692688 9.487261 -1.217881 -3.897470 0.000000 0.000000 0.000000 -22.283524 12.485538 4.292878 0.000000 0.000000 0.000000 0.000000 0.000000 0.000000 -5.533328 2.017796 20.069210 -138.010345 42.719738 87.852501 4.141615 -22.953409 -97.311729 0.000000 0.000000 0.000000 6.455625 -11.670383 12.408940 123.913979 -26.579922 58.581882 6.602091 34.820351 -79.160629 -1.384802 -6.057494 -2.665951 10.108058 0.128207 -1.683965 -2.948281 3.677121 1.482852 -9.695271 -4.032162 -6.033515 23.832623 1.912553 -10.118311 7.672829 0.472559 -1.485807 
-3.100987 47.675949 97.362045 -0.383393 4.755929 48.159515 9.155689 1.070241 -4.932420 0.000000 0.000000 0.000000 -16.442141 13.536939 11.185214 0.000000 0.000000 0.000000 0.000000 0.000000 0.000000 -13.078472 4.275729 15.820532 -136.224609 47.123642 85.166451 5.898652 -11.314564 -106.637444 0.000000 0.000000 0.000000 11.781407 -10.130971 -1.847081 118.419304 -30.723404 55.483582 -2.684587 25.056082 -93.628876 -0.526667 -5.103257 -1.674498 11.724010 0.009612 -3.460705 -3.955488 5.007883 2.090467 -18.502111 -4.921301 -1.376112 38.192116 4.625216 -9.461034 17.921179 1.073012 -0.574035 
-3.132432 47.574703 97.463654 -1.972439 5.284839 47.610775 8.791016 3.341154 -5.976539 0.000000 0.000000 0.000000 -10.560052 13.882088 18.045177 0.000000 0.000000 0.000000 0.000000 0.000000 0.000000 -20.753275 6.026420 11.392982 -133.833206 51.447563 81.946220 5.716639 0.411797 -115.321800 0.000000 0.000000 0.000000 16.516304 -7.439618 -15.619204 112.344330 -34.569263 51.747101 -8.585361 13.807551 -105.263214 0.331704 -4.161798 -0.656931 13.368062 -0.049032 -5.273891 -4.963330 6.315180 2.715706 -27.362078 -5.097354 3.296307 52.608673 7.020516 -8.078488 28.137161 1.880382 0.220794 
-2.964484 47.429150 97.642776 -3.879084 6.793734 46.585918 9.238828 4.217706 -6.863704 0.000000 0.000000 0.000000 -10.205091 13.870147 12.791122 0.000000 0.000000 0.000000 0.000000 0.000000 0.000000 -24.953308 14.217999 16.095360 -119.473831 54.200085 71.759857 3.711860 8.835441 -115.072968 0.000000 0.000000 0.000000 19.716747 -11.746386 -11.397797 99.884171 -38.648323 45.190247 -7.188272 8.303287 -101.713379 2.508557 -3.904768 0.255417 14.647959 -0.197871 -5.835849 -6.344370 6.942986 3.160034 -35.434799 -4.208968 6.813131 64.855408 8.504467 -4.109892 37.645203 4.925760 -0.507502 
-2.795940 47.282578 97.823120 -5.840940 8.272884 45.496147 9.680575 5.090219 -7.735158 0.000000 0.000000 0.000000 -9.878193 13.851692 7.445455 0.000000 0.000000 0.000000 0.000000 0.000000 0.000000 -28.605982 22.700069 20.423449 -103.851707 55.215214 60.264240 1.659211 17.197721 -115.105804 0.000000 0.000000 0.000000 22.682615 -16.271212 -7.300582 86.271126 -41.410183 37.308651 -6.128270 2.789395 -98.259850 4.693557 -3.668801 1.196396 15.955390 -0.324946 -6.428699 -7.715564 7.553234 3.627452 -43.424816 -2.861291 10.158011 77.193443 9.140082 0.119826 47.203945 7.773196 -1.738642 
-2.572009 47.041851 98.114227 -8.439156 10.329275 44.257648 11.519815 5.174022 -8.001239 0.000000 0.000000 0.000000 -12.279948 11.104095 -6.836707 0.000000 0.000000 0.000000 0.000000 0.000000 0.000000 -29.983732 30.948694 29.806026 -92.160088 51.646198 53.330746 -2.300245 19.476105 -114.306694 0.000000 0.000000 0.000000 28.624432 -21.940163 1.973426 74.083931 -40.910324 32.108707 -2.564363 1.920297 -88.994415 7.372385 -3.271063 3.083484 18.190485 0.006732 -7.846289 -9.557506 7.916831 4.144118 -50.668163 -1.505073 12.467778 86.845833 9.657323 3.501591 50.850178 9.188869 -3.408116 
